<svg width="20" height="20" viewBox="0 0 20 20" fill="none" xmlns="http://www.w3.org/2000/svg">
<path d="M15.5921 16.2501C14.9004 17.2834 14.1671 18.2917 13.0504 18.3084C11.9337 18.3334 11.5754 17.6501 10.3087 17.6501C9.03372 17.6501 8.64205 18.2917 7.58369 18.3334C6.49203 18.3751 5.66703 17.2334 4.96703 16.2251C3.54203 14.1667 2.45036 10.3751 3.91703 7.82508C4.64203 6.55841 5.94203 5.75841 7.35036 5.73341C8.41705 5.71675 9.43372 6.45841 10.0921 6.45841C10.7421 6.45841 11.9754 5.56675 13.2671 5.70008C13.8087 5.72508 15.3254 5.91675 16.3004 7.35008C16.2254 7.40008 14.4921 8.41675 14.5087 10.5251C14.5337 13.0417 16.7171 13.8834 16.7421 13.8917C16.7171 13.9501 16.3921 15.0917 15.5921 16.2501ZM10.8337 2.91675C11.4421 2.22508 12.4504 1.70008 13.2837 1.66675C13.3921 2.64175 13.0004 3.62508 12.4171 4.32508C11.8421 5.03341 10.8921 5.58341 9.95872 5.50841C9.83372 4.55008 10.3004 3.55008 10.8337 2.91675Z" fill="white"/>
</svg>
