<svg width="24" height="24" viewBox="0 0 24 24" fill="none" xmlns="http://www.w3.org/2000/svg">
<path d="M17.2298 12.0426C16.7686 11.8234 16.298 11.6345 15.8192 11.4763C17.37 10.3123 18.375 8.45883 18.375 6.375C18.375 2.85984 15.5152 0 12 0C8.48478 0 5.62498 2.85984 5.62498 6.375C5.62498 8.46113 6.63223 10.3164 8.1859 11.4802C6.7624 11.9489 5.4267 12.6781 4.25764 13.6397C2.11395 15.403 0.623466 17.8625 0.0608257 20.5651C-0.115518 21.412 0.0957476 22.2818 0.640341 22.9515C1.18226 23.6178 1.98584 24 2.84497 24H14.3906C14.9084 24 15.3281 23.5803 15.3281 23.0625C15.3281 22.5447 14.9084 22.125 14.3906 22.125H2.84497C2.44475 22.125 2.20329 21.9016 2.09501 21.7685C1.90803 21.5385 1.83565 21.2393 1.89645 20.9473C2.86934 16.2741 6.99134 12.8603 11.7515 12.7452C11.8339 12.7484 11.9167 12.75 12 12.75C12.084 12.75 12.1677 12.7484 12.251 12.7451C13.7097 12.7793 15.1127 13.1123 16.4249 13.7361C16.8926 13.9583 17.4518 13.7595 17.6741 13.2918C17.8963 12.8242 17.6975 12.2649 17.2298 12.0426ZM12.2286 10.8692C12.1526 10.8679 12.0763 10.8672 12 10.8672C11.9243 10.8672 11.8487 10.8679 11.7731 10.8693C9.39678 10.7508 7.49998 8.78025 7.49998 6.375C7.49998 3.89367 9.51865 1.875 12 1.875C14.4813 1.875 16.5 3.89367 16.5 6.375C16.5 8.77964 14.6041 10.7498 12.2286 10.8692Z" fill="white"/>
<path d="M16.3144 20.7998C16.1876 20.8002 16.0621 20.772 15.9451 20.7168C15.828 20.6617 15.7218 20.5808 15.6326 20.4787L13.0597 17.5597C12.8893 17.3522 12.7965 17.0777 12.8009 16.7941C12.8053 16.5106 12.9066 16.24 13.0834 16.0394C13.2601 15.8389 13.4986 15.724 13.7486 15.719C13.9985 15.714 14.2404 15.8193 14.4233 16.0126L16.3144 18.1566L20.7782 13.0936C20.9611 12.9002 21.203 12.795 21.453 12.8C21.7029 12.805 21.9414 12.9199 22.1182 13.1204C22.295 13.321 22.3962 13.5915 22.4006 13.8751C22.405 14.1587 22.3123 14.4332 22.1418 14.6407L16.9962 20.4787C16.9069 20.5808 16.8007 20.6617 16.6836 20.7168C16.5666 20.772 16.4411 20.8002 16.3144 20.7998Z" fill="white"/>
</svg>
