<svg width="353" height="353" viewBox="0 0 353 353" fill="none" xmlns="http://www.w3.org/2000/svg">
<g clip-path="url(#clip0_1780_1353)">
<path d="M320.099 141.401L218.063 318.132C210.663 330.95 194.201 335.361 181.383 327.961L162.78 317.22C160.212 315.738 159.332 312.451 160.814 309.884L163.499 305.233C169.423 294.973 165.896 281.813 155.637 275.889C145.377 269.966 132.216 273.492 126.293 283.752L123.607 288.403C122.125 290.97 118.839 291.851 116.271 290.368L97.6682 279.628C84.8505 272.227 80.4395 255.766 87.8398 242.948L189.876 66.2165C197.276 53.3989 213.738 48.9879 226.556 56.3882L245.159 67.1288C247.726 68.611 248.607 71.8975 247.125 74.4648L244.439 79.1156C238.516 89.3753 242.042 102.536 252.302 108.46C257.269 111.327 263.056 112.088 268.602 110.602C274.142 109.126 278.773 105.573 281.641 100.606L284.326 95.9553C285.808 93.3881 289.095 92.5074 291.662 93.9897L310.265 104.73C323.088 112.121 327.499 128.583 320.099 141.401ZM172.801 310.603L186.753 318.659C194.446 323.1 204.32 320.454 208.761 312.762L310.797 136.031C315.238 128.338 312.593 118.464 304.9 114.023L290.948 105.967C286.646 113.418 279.695 118.756 271.39 120.981C263.071 123.21 254.382 122.063 246.932 117.761C231.547 108.879 226.255 89.1302 235.138 73.7453L221.185 65.6898C213.493 61.2486 203.619 63.8944 199.177 71.5868L97.1415 248.318C92.7002 256.011 95.346 265.885 103.038 270.326L116.991 278.382C125.873 262.997 145.622 257.705 161.007 266.588C176.392 275.47 181.683 295.219 172.801 310.603Z" fill="#F6F6F6"/>
<path d="M138.663 197.879C137.181 200.446 133.895 201.327 131.327 199.844L122.026 194.474C119.459 192.992 118.578 189.705 120.06 187.138C121.542 184.571 124.829 183.69 127.396 185.172L136.698 190.543C139.265 192.025 140.146 195.311 138.663 197.879Z" fill="#F6F6F6"/>
<path d="M217.366 243.317C215.884 245.884 212.597 246.765 210.03 245.282L194.301 236.201C191.734 234.719 190.853 231.433 192.335 228.865C193.818 226.298 197.095 225.412 199.671 226.9L215.41 235.986C217.977 237.468 218.848 240.749 217.366 243.317ZM178.02 220.6C176.538 223.168 173.251 224.048 170.684 222.566L154.946 213.479C152.378 211.997 151.498 208.711 152.98 206.143C154.462 203.576 157.749 202.696 160.316 204.178L176.054 213.264C178.622 214.747 179.502 218.033 178.02 220.6Z" fill="#F6F6F6"/>
<path d="M250.285 262.322C248.802 264.89 245.516 265.77 242.949 264.288L233.647 258.918C231.08 257.435 230.199 254.149 231.681 251.582C233.163 249.014 236.45 248.134 239.017 249.616L248.319 254.986C250.886 256.469 251.767 259.755 250.285 262.322Z" fill="#F6F6F6"/>
<path d="M97.1409 248.318C96.0507 250.206 93.8716 251.317 91.6045 250.926C88.6745 250.437 86.6991 247.672 87.1971 244.747L117.361 64.9677C118.815 56.2202 127.728 50.105 136.392 51.8328L195.569 63.6374C198.478 64.2258 200.359 67.0479 199.785 69.9536C199.222 72.8406 196.374 74.7437 193.469 74.1699L134.292 62.3654C131.401 61.7876 128.458 63.8341 127.942 66.7481L97.7777 246.528C97.6762 247.176 97.4524 247.779 97.1409 248.318Z" fill="#F6F6F6"/>
</g>
<defs>
<clipPath id="clip0_1780_1353">
<rect width="257.775" height="257.775" fill="white" transform="translate(0 223.24) rotate(-60)"/>
</clipPath>
</defs>
</svg>
