<svg width="32" height="32" viewBox="0 0 32 32" fill="none" xmlns="http://www.w3.org/2000/svg">
<path d="M21 12C21 11.4477 20.5523 11 20 11C19.4477 11 19 11.4477 19 12V14.6667C19 15.2189 19.4477 15.6667 20 15.6667C20.5523 15.6667 21 15.2189 21 14.6667V12Z" fill="white"/>
<path d="M21 17.333C21 16.7807 20.5523 16.333 20 16.333C19.4477 16.333 19 16.7807 19 17.333V19.9997C19 20.552 19.4477 20.9997 20 20.9997C20.5523 20.9997 21 20.552 21 19.9997V17.333Z" fill="white"/>
<path fill-rule="evenodd" clip-rule="evenodd" d="M29.3327 10.6665V13.3332C27.8599 13.3332 26.666 14.5271 26.666 15.9998C26.666 17.4726 27.8599 18.6665 29.3327 18.6665V21.3332C29.3327 23.5423 27.5418 25.3332 25.3327 25.3332H6.66602C4.45686 25.3332 2.66602 23.5423 2.66602 21.3332V18.6665C4.13878 18.6665 5.33267 17.4726 5.33267 15.9998C5.33267 14.5271 4.13878 13.3332 2.66602 13.3332V10.6665C2.66602 8.45738 4.45686 6.6665 6.66602 6.6665H25.3327C27.5418 6.6665 29.3327 8.45738 29.3327 10.6665ZM4.66602 10.6665C4.66602 9.56196 5.56144 8.6665 6.66602 8.6665H18.9994V9.33319C18.9994 9.88548 19.4471 10.3332 19.9994 10.3332C20.5516 10.3332 20.9994 9.88548 20.9994 9.33319V8.6665H25.3327C26.4372 8.6665 27.3327 9.56196 27.3327 10.6665V11.7823C25.7561 12.5312 24.666 14.1382 24.666 15.9998C24.666 17.8614 25.7561 19.4685 27.3327 20.2174V21.3332C27.3327 22.4378 26.4372 23.3332 25.3327 23.3332H20.9994V22.6665C20.9994 22.1142 20.5516 21.6665 19.9994 21.6665C19.4471 21.6665 18.9994 22.1142 18.9994 22.6665V23.3332H6.66602C5.56144 23.3332 4.66602 22.4378 4.66602 21.3332V20.2174C6.24266 19.4685 7.33267 17.8614 7.33267 15.9998C7.33267 14.1382 6.24266 12.5312 4.66602 11.7823V10.6665Z" fill="white"/>
</svg>
