<svg width="26" height="26" viewBox="0 0 26 26" fill="none" xmlns="http://www.w3.org/2000/svg">
<path d="M22.75 20.5832H5.41667V3.24984C5.41667 2.96252 5.30253 2.68697 5.09937 2.4838C4.8962 2.28064 4.62065 2.1665 4.33333 2.1665C4.04602 2.1665 3.77047 2.28064 3.5673 2.4838C3.36414 2.68697 3.25 2.96252 3.25 3.24984V21.6665C3.25 21.9538 3.36414 22.2294 3.5673 22.4325C3.77047 22.6357 4.04602 22.7498 4.33333 22.7498H22.75C23.0373 22.7498 23.3129 22.6357 23.516 22.4325C23.7192 22.2294 23.8333 21.9538 23.8333 21.6665C23.8333 21.3792 23.7192 21.1036 23.516 20.9005C23.3129 20.6973 23.0373 20.5832 22.75 20.5832Z" fill="white"/>
<path d="M7.58398 11.9168V17.3335C7.58398 17.6208 7.69812 17.8964 7.90129 18.0995C8.10445 18.3027 8.38 18.4168 8.66732 18.4168C8.95464 18.4168 9.23019 18.3027 9.43335 18.0995C9.63651 17.8964 9.75065 17.6208 9.75065 17.3335V11.9168C9.75065 11.6295 9.63651 11.354 9.43335 11.1508C9.23019 10.9476 8.95464 10.8335 8.66732 10.8335C8.38 10.8335 8.10445 10.9476 7.90129 11.1508C7.69812 11.354 7.58398 11.6295 7.58398 11.9168Z" fill="white"/>
<path d="M11.916 6.49984V17.3332C11.916 17.6205 12.0302 17.896 12.2333 18.0992C12.4365 18.3024 12.712 18.4165 12.9993 18.4165C13.2867 18.4165 13.5622 18.3024 13.7654 18.0992C13.9685 17.896 14.0827 17.6205 14.0827 17.3332V6.49984C14.0827 6.21252 13.9685 5.93697 13.7654 5.73381C13.5622 5.53064 13.2867 5.4165 12.9993 5.4165C12.712 5.4165 12.4365 5.53064 12.2333 5.73381C12.0302 5.93697 11.916 6.21252 11.916 6.49984Z" fill="white"/>
<path d="M16.25 8.66683V17.3335C16.25 17.6208 16.3641 17.8964 16.5673 18.0995C16.7705 18.3027 17.046 18.4168 17.3333 18.4168C17.6207 18.4168 17.8962 18.3027 18.0994 18.0995C18.3025 17.8964 18.4167 17.6208 18.4167 17.3335V8.66683C18.4167 8.37951 18.3025 8.10396 18.0994 7.9008C17.8962 7.69763 17.6207 7.5835 17.3333 7.5835C17.046 7.5835 16.7705 7.69763 16.5673 7.9008C16.3641 8.10396 16.25 8.37951 16.25 8.66683Z" fill="white"/>
<path d="M20.584 3.24984V17.3332C20.584 17.6205 20.6981 17.896 20.9013 18.0992C21.1044 18.3024 21.38 18.4165 21.6673 18.4165C21.9546 18.4165 22.2302 18.3024 22.4334 18.0992C22.6365 17.896 22.7507 17.6205 22.7507 17.3332V3.24984C22.7507 2.96252 22.6365 2.68697 22.4334 2.4838C22.2302 2.28064 21.9546 2.1665 21.6673 2.1665C21.38 2.1665 21.1044 2.28064 20.9013 2.4838C20.6981 2.68697 20.584 2.96252 20.584 3.24984Z" fill="white"/>
</svg>
