<svg width="22" height="22" viewBox="0 0 22 22" fill="none" xmlns="http://www.w3.org/2000/svg">
<path d="M21.5973 11.9719L16.7256 16.8436C16.4571 17.1121 16.1052 17.2463 15.7533 17.2463C15.4014 17.2463 15.0495 17.1121 14.781 16.8436C14.2441 16.3066 14.2441 15.436 14.781 14.899L17.3054 12.3746H1.375C0.615613 12.3746 0 11.759 0 10.9996C0 10.2402 0.615613 9.62463 1.375 9.62463H17.3054L14.781 7.10022C14.2441 6.56324 14.2441 5.69265 14.781 5.15567C15.318 4.61868 16.1886 4.61868 16.7256 5.15567L21.5973 10.0274C22.1342 10.5643 22.1342 11.4349 21.5973 11.9719Z" fill="white"/>
</svg>
