<svg width="26" height="26" viewBox="0 0 26 26" fill="none" xmlns="http://www.w3.org/2000/svg">
<path d="M12.9999 24.6446C12.5831 24.6453 12.1702 24.5635 11.785 24.4042C11.3998 24.2449 11.0499 24.0111 10.7552 23.7162L9.57331 22.5332C9.42982 22.3889 9.25913 22.2745 9.07114 22.1966C8.88314 22.1187 8.68156 22.0788 8.47806 22.0793H7.09356C6.25198 22.0785 5.44512 21.7438 4.85004 21.1487C4.25495 20.5536 3.92025 19.7467 3.91939 18.9051V17.5217C3.92002 17.3183 3.88033 17.1168 3.8026 16.9288C3.72488 16.7408 3.61066 16.5701 3.46656 16.4265L2.28356 15.2446C1.68923 14.6487 1.35547 13.8415 1.35547 12.9999C1.35547 12.1583 1.68923 11.3511 2.28356 10.7552L3.46656 9.57331C3.61086 9.42981 3.72527 9.25913 3.80319 9.07114C3.8811 8.88314 3.92097 8.68156 3.92048 8.47806V7.09356C3.92134 6.25198 4.25603 5.44512 4.85112 4.85004C5.44621 4.25495 6.25307 3.92025 7.09464 3.91939H8.47806C8.68149 3.92002 8.88302 3.88033 9.07101 3.8026C9.259 3.72488 9.42973 3.61066 9.57331 3.46656L10.7552 2.28356C11.3511 1.68923 12.1583 1.35547 12.9999 1.35547C13.8415 1.35547 14.6487 1.68923 15.2446 2.28356L16.4265 3.46656C16.57 3.61086 16.7407 3.72527 16.9287 3.80319C17.1166 3.8811 17.3182 3.92097 17.5217 3.92048H18.9062C19.7478 3.92134 20.5547 4.25603 21.1498 4.85112C21.7448 5.4462 22.0795 6.25307 22.0804 7.09464V8.47806C22.0798 8.68149 22.1195 8.88302 22.1972 9.07101C22.2749 9.259 22.3891 9.42972 22.5332 9.57331L23.7151 10.7552C24.3095 11.3511 24.6432 12.1583 24.6432 12.9999C24.6432 13.8415 24.3095 14.6487 23.7151 15.2446L22.5332 16.4265C22.3889 16.57 22.2745 16.7407 22.1966 16.9287C22.1187 17.1166 22.0788 17.3182 22.0793 17.5217V18.9062C22.0785 19.7478 21.7438 20.5547 21.1487 21.1498C20.5536 21.7448 19.7467 22.0795 18.9051 22.0804H17.5217C17.3182 22.0799 17.1166 22.1198 16.9287 22.1977C16.7407 22.2756 16.57 22.39 16.4265 22.5343L15.2446 23.7162C14.9499 24.0111 14.6 24.2449 14.2148 24.4042C13.8296 24.5635 13.4167 24.6453 12.9999 24.6446ZM7.09356 5.54439C6.68278 5.54468 6.28891 5.70799 5.99845 5.99845C5.70799 6.28891 5.54468 6.68278 5.54439 7.09356V8.47806C5.5459 8.89555 5.4644 9.30918 5.30465 9.69489C5.14489 10.0806 4.91006 10.4307 4.61381 10.7249L3.43298 11.9057C3.14269 12.1967 2.97967 12.591 2.97967 13.0021C2.97967 13.4131 3.14269 13.8074 3.43298 14.0984L4.61381 15.2792C4.90981 15.5731 5.14448 15.9229 5.30423 16.3082C5.46398 16.6936 5.54561 17.1068 5.54439 17.5239V18.9084C5.54468 19.3192 5.70799 19.713 5.99845 20.0035C6.28891 20.294 6.68278 20.4573 7.09356 20.4576H8.47806C8.89515 20.4566 9.3083 20.5383 9.69359 20.6981C10.0789 20.8578 10.4287 21.0923 10.7227 21.3881L11.9036 22.569C12.1946 22.8593 12.5889 23.0223 12.9999 23.0223C13.4109 23.0223 13.8052 22.8593 14.0962 22.569L15.2771 21.3881C15.5711 21.0923 15.9209 20.8578 16.3062 20.6981C16.6915 20.5383 17.1046 20.4566 17.5217 20.4576H18.9062C19.317 20.4573 19.7109 20.294 20.0013 20.0035C20.2918 19.713 20.4551 19.3192 20.4554 18.9084V17.5217C20.4542 17.1046 20.5358 16.6914 20.6956 16.3061C20.8553 15.9207 21.09 15.571 21.386 15.2771L22.5668 14.0962C22.8571 13.8052 23.0201 13.4109 23.0201 12.9999C23.0201 12.5888 22.8571 12.1946 22.5668 11.9036L21.386 10.7249C21.0902 10.4308 20.8556 10.081 20.6959 9.69575C20.5362 9.31046 20.4544 8.89732 20.4554 8.48023V7.09356C20.4551 6.68278 20.2918 6.28891 20.0013 5.99845C19.7109 5.70799 19.317 5.54468 18.9062 5.54439H17.5217C17.1042 5.5459 16.6906 5.4644 16.3049 5.30465C15.9192 5.14489 15.5691 4.91006 15.2749 4.61381L14.0941 3.43298C13.803 3.14269 13.4088 2.97967 12.9977 2.97967C12.5867 2.97967 12.1924 3.14269 11.9014 3.43298L10.7249 4.61381C10.431 4.9098 10.0812 5.14448 9.69589 5.30423C9.31057 5.46398 8.89735 5.54561 8.48023 5.54439H7.09356Z" fill="white"/>
<path d="M11.9159 15.9791C11.8092 15.9793 11.7035 15.9584 11.6049 15.9175C11.5064 15.8766 11.4169 15.8165 11.3418 15.7407L9.1751 13.5741C9.03158 13.4201 8.95344 13.2163 8.95716 13.0058C8.96087 12.7954 9.04614 12.5945 9.19501 12.4457C9.34387 12.2968 9.54471 12.2115 9.7552 12.2078C9.96569 12.2041 10.1694 12.2822 10.3234 12.4257L11.9159 14.0172L15.6751 10.2591C15.8291 10.1156 16.0328 10.0374 16.2433 10.0411C16.4538 10.0449 16.6547 10.1301 16.8035 10.279C16.9524 10.4279 17.0377 10.6287 17.0414 10.8392C17.0451 11.0497 16.967 11.2534 16.8234 11.4074L12.4901 15.7407C12.4149 15.8165 12.3255 15.8766 12.2269 15.9175C12.1284 15.9584 12.0226 15.9793 11.9159 15.9791Z" fill="white"/>
</svg>
