<svg width="33" height="33" viewBox="0 0 33 33" fill="none" xmlns="http://www.w3.org/2000/svg">
<g clip-path="url(#clip0_1780_1338)">
<path d="M16.501 19.8838C18.3698 19.8838 19.8848 18.3688 19.8848 16.5C19.8848 14.6312 18.3698 13.1162 16.501 13.1162C14.6322 13.1162 13.1172 14.6312 13.1172 16.5C13.1172 18.3688 14.6322 19.8838 16.501 19.8838Z" fill="#9F9F9F"/>
<path d="M16.5 0.386719C7.60089 0.386719 0.386719 7.60089 0.386719 16.5C0.386719 25.3991 7.60089 32.6133 16.5 32.6133C25.3991 32.6133 32.6133 25.3991 32.6133 16.5C32.6133 7.60089 25.3991 0.386719 16.5 0.386719ZM26.4553 20.5954C26.378 22.1273 25.9475 23.6379 24.8311 24.7425C23.7039 25.8575 22.1861 26.273 20.6394 26.3495H12.3607C10.8138 26.273 9.2962 25.8578 8.16898 24.7425C7.05253 23.6379 6.62211 22.1273 6.54476 20.5954V12.4046C6.62211 10.8727 7.05259 9.36207 8.16898 8.25748C9.2962 7.14244 10.814 6.72697 12.3607 6.65047H20.6393C22.1862 6.72697 23.7038 7.14224 24.831 8.25748C25.9475 9.36207 26.3779 10.8727 26.4552 12.4046L26.4553 20.5954Z" fill="#9F9F9F"/>
<path d="M20.5347 8.51682C18.5182 8.46152 14.4821 8.46152 12.4656 8.51682C11.4163 8.54563 10.2267 8.80686 9.47901 9.60543C8.70209 10.4355 8.40851 11.4384 8.37873 12.5603C8.32639 14.5295 8.37873 20.4399 8.37873 20.4399C8.41282 21.5617 8.70209 22.5647 9.47901 23.3948C10.2267 24.1936 11.4163 24.4546 12.4656 24.4834C14.4821 24.5387 18.5182 24.5387 20.5347 24.4834C21.584 24.4546 22.7736 24.1934 23.5213 23.3948C24.2982 22.5647 24.5918 21.5618 24.6216 20.4399V12.5603C24.5918 11.4384 24.2982 10.4355 23.5213 9.60543C22.7734 8.8066 21.5838 8.54563 20.5347 8.51682ZM16.4999 21.745C15.4625 21.745 14.4485 21.4374 13.586 20.8611C12.7235 20.2847 12.0512 19.4656 11.6543 18.5072C11.2573 17.5489 11.1534 16.4943 11.3558 15.4769C11.5582 14.4595 12.0577 13.5249 12.7912 12.7914C13.5247 12.0579 14.4593 11.5584 15.4767 11.356C16.4941 11.1536 17.5486 11.2575 18.507 11.6545C19.4654 12.0515 20.2845 12.7237 20.8608 13.5862C21.4372 14.4487 21.7448 15.4628 21.7448 16.5001C21.7448 17.8911 21.1922 19.2252 20.2086 20.2088C19.225 21.1924 17.8909 21.745 16.4999 21.745ZM21.7671 12.3379C21.5596 12.3378 21.3568 12.2762 21.1844 12.1609C21.0119 12.0457 20.8775 11.8818 20.7981 11.6901C20.7188 11.4984 20.698 11.2875 20.7385 11.0841C20.779 10.8806 20.879 10.6937 21.0257 10.5471C21.1724 10.4004 21.3593 10.3005 21.5628 10.26C21.7662 10.2196 21.9771 10.2404 22.1688 10.3198C22.3605 10.3992 22.5243 10.5336 22.6395 10.7061C22.7548 10.8786 22.8163 11.0814 22.8163 11.2889C22.8163 11.4267 22.7892 11.5631 22.7364 11.6904C22.6837 11.8177 22.6064 11.9333 22.509 12.0307C22.4115 12.1281 22.2959 12.2054 22.1686 12.2581C22.0413 12.3108 21.9048 12.3379 21.7671 12.3379Z" fill="#9F9F9F"/>
</g>
<defs>
<clipPath id="clip0_1780_1338">
<rect width="33" height="33" fill="white"/>
</clipPath>
</defs>
</svg>
