<svg width="26" height="25" viewBox="0 0 26 25" fill="none" xmlns="http://www.w3.org/2000/svg">
<path fill-rule="evenodd" clip-rule="evenodd" d="M15.795 1.80222C15.6509 0.900828 14.9308 0.203935 14.0254 0.0874047C14.0208 0.0862623 14.0163 0.0862635 14.0117 0.0851211C13.0183 -0.0291239 12.0158 -0.0291242 11.0236 0.0896905C11.0202 0.0896905 11.0167 0.0896899 11.0133 0.0908324C10.1137 0.20622 9.39693 0.896259 9.24833 1.78965C9.21061 2.00786 9.16945 2.25692 9.13059 2.49912C9.09287 2.73446 8.93512 2.93325 8.71564 3.0235C8.2744 3.18916 7.84801 3.39365 7.43763 3.62671C7.43535 3.62786 7.43306 3.629 7.43078 3.63128C7.22387 3.7501 6.96896 3.75124 6.76091 3.63471L6.13906 3.2954C5.34573 2.84642 4.35008 2.97438 3.69507 3.60958C3.69164 3.613 3.68821 3.61529 3.68478 3.61872C2.97605 4.32361 2.35077 5.10733 1.82493 5.95617C1.82379 5.9596 1.82151 5.96188 1.82036 5.96417C1.3494 6.73989 1.44313 7.73039 2.04784 8.4033C2.1953 8.56895 2.36563 8.75631 2.53024 8.93682C2.69027 9.1139 2.74743 9.36067 2.68113 9.58916C2.53595 10.037 2.43079 10.4974 2.35648 10.9635C2.35648 10.9658 2.35534 10.9692 2.35534 10.9715C2.3199 11.208 2.16215 11.4079 1.94039 11.497L1.28767 11.7712C0.441762 12.1128 -0.0783553 12.9697 0.0096646 13.8768C0.0096646 13.8813 0.0108093 13.8859 0.0108093 13.8905C0.119405 14.8844 0.343455 15.8612 0.679531 16.8014C0.680674 16.8049 0.681818 16.8083 0.682961 16.8106C0.995032 17.6617 1.82951 18.2067 2.73371 18.153C2.95548 18.1415 3.20696 18.1244 3.45159 18.1095C3.68936 18.0936 3.91798 18.2032 4.05515 18.3974C4.31464 18.7904 4.60957 19.1595 4.92849 19.5079C4.92964 19.5102 4.93192 19.5125 4.93307 19.5136C5.09653 19.6896 5.15369 19.9375 5.08624 20.166L4.8942 20.848C4.63357 21.7208 4.97879 22.6611 5.74354 23.1592C5.74811 23.1615 5.75154 23.1637 5.75611 23.166C6.60087 23.7007 7.50394 24.1348 8.44929 24.4581C8.45272 24.4593 8.45615 24.4604 8.45844 24.4616C9.3192 24.7483 10.2657 24.4364 10.787 23.6961C10.9161 23.5156 11.0602 23.3088 11.2008 23.1078C11.3368 22.9124 11.5654 22.8016 11.8032 22.8153C12.2719 22.8576 12.744 22.8587 13.2161 22.8267C13.2184 22.8256 13.2207 22.8256 13.2241 22.8256C13.4619 22.8073 13.6928 22.917 13.8288 23.1135L14.2426 23.6881C14.7627 24.4364 15.7149 24.7529 16.5803 24.465C16.5849 24.4639 16.5894 24.4616 16.594 24.4604C17.5382 24.1337 18.4413 23.6984 19.2837 23.1615C19.2872 23.1592 19.2895 23.158 19.2917 23.1557C20.0531 22.6622 20.3983 21.7288 20.1457 20.8594C20.0851 20.6458 20.0131 20.4047 19.9422 20.1694C19.8747 19.9409 19.9308 19.6941 20.0896 19.517C20.4143 19.1766 20.7104 18.8076 20.979 18.4192C20.9801 18.4169 20.9813 18.4146 20.9836 18.4123C21.1184 18.2158 21.3471 18.1038 21.586 18.1187L22.2936 18.1552C23.2023 18.2147 24.0437 17.6686 24.358 16.8117C24.3603 16.8083 24.3615 16.8037 24.3638 16.7992C24.6964 15.8566 24.9193 14.8798 25.0245 13.8859C25.0245 13.8836 25.0256 13.8802 25.0256 13.8768C25.1125 12.9754 24.5992 12.122 23.7602 11.7781C23.5556 11.6936 23.3224 11.5987 23.0949 11.5062C22.8731 11.4171 22.7154 11.2194 22.6754 10.9852C22.6125 10.5191 22.5073 10.0576 22.3713 9.6063C22.3713 9.60401 22.3702 9.60058 22.369 9.5983C22.2981 9.36981 22.3542 9.1219 22.5153 8.94482L22.984 8.41358C23.5979 7.74067 23.695 6.74217 23.2218 5.96302C23.2195 5.9596 23.2161 5.95503 23.2138 5.9516C22.6845 5.1039 22.0592 4.32018 21.3482 3.61872C21.3459 3.61643 21.3436 3.61415 21.3414 3.61186C20.6898 2.98123 19.7021 2.85099 18.9111 3.29198C18.7168 3.39822 18.4961 3.52275 18.2835 3.64271C18.0755 3.75924 17.8217 3.76038 17.6137 3.64499C17.209 3.40394 16.7838 3.1983 16.3459 3.02236C16.3425 3.02122 16.3402 3.02007 16.3379 3.02007C16.115 2.9321 15.955 2.73446 15.9173 2.49797L15.795 1.80222ZM13.5682 2.33575L13.6653 2.89212C13.8379 3.9089 14.5352 4.76688 15.5023 5.14617C15.8224 5.27527 16.1413 5.42721 16.4442 5.60886C16.45 5.61115 16.4545 5.61458 16.4591 5.61686C17.369 6.14239 18.4893 6.14924 19.4049 5.634L19.8713 5.37352C20.3571 5.86934 20.7961 6.41886 21.1767 7.00722L20.8029 7.43107C20.1148 8.19994 19.8782 9.27956 20.1845 10.2723C20.284 10.6025 20.3628 10.9464 20.4109 11.296C20.4109 11.3017 20.412 11.3074 20.4131 11.3131C20.5686 12.3516 21.2625 13.2301 22.2364 13.6243L22.7314 13.8265C22.6456 14.5154 22.489 15.2009 22.2673 15.8658L21.7026 15.8372C20.6715 15.7789 19.6793 16.2679 19.094 17.1259C18.8974 17.4092 18.6779 17.6857 18.4344 17.9405C18.4298 17.945 18.4264 17.9485 18.423 17.953C17.7074 18.723 17.4525 19.8129 17.7508 20.8194L17.9017 21.3324C17.3096 21.6946 16.6752 21.9996 16.0167 22.2406L15.6875 21.7814C15.0897 20.9405 14.0894 20.4698 13.0526 20.5475C12.7085 20.5704 12.3553 20.5715 12.0032 20.5395C11.9975 20.5395 11.9918 20.5384 11.9872 20.5384C10.939 20.4596 9.92734 20.9394 9.32606 21.8008L9.01856 22.2372C8.36584 22.0007 7.73142 21.6957 7.13242 21.3313L7.2856 20.7874C7.57252 19.7969 7.31646 18.7208 6.60887 17.9599C6.37682 17.7051 6.1562 17.4298 5.96073 17.135C5.95844 17.1305 5.95501 17.1259 5.95158 17.1213C5.36059 16.2531 4.35351 15.7618 3.30527 15.8292L2.77143 15.8612C2.54967 15.2032 2.39306 14.5188 2.30504 13.8231L2.82516 13.6037C3.77966 13.2096 4.46096 12.339 4.61642 11.312C4.67015 10.9715 4.74788 10.6265 4.85762 10.2906C4.85876 10.2861 4.86105 10.2803 4.86219 10.2746C5.17198 9.27156 4.92964 8.17938 4.22319 7.40137L3.8654 7.00494C4.24148 6.42115 4.67929 5.87163 5.16855 5.36895L5.66466 5.63971C6.56772 6.13896 7.67426 6.12868 8.57389 5.60886C8.87453 5.43864 9.19232 5.28555 9.52268 5.16102C9.52839 5.15988 9.53296 5.1576 9.53868 5.15531C10.5172 4.77259 11.2202 3.9009 11.3882 2.86356L11.4751 2.33689C12.1656 2.2672 12.8697 2.2672 13.5682 2.33575ZM12.5188 6.85528C9.36493 6.85528 6.80321 9.41436 6.80321 12.5675C6.80321 15.7207 9.36493 18.2798 12.5188 18.2798C15.6738 18.2798 18.2344 15.7207 18.2344 12.5675C18.2344 9.41436 15.6738 6.85528 12.5188 6.85528ZM12.5188 9.14018C14.4118 9.14018 15.9481 10.6756 15.9481 12.5675C15.9481 14.4594 14.4118 15.9949 12.5188 15.9949C10.6258 15.9949 9.08944 14.4594 9.08944 12.5675C9.08944 10.6756 10.6258 9.14018 12.5188 9.14018Z" fill="white"/>
</svg>
